<svg xmlns="http://www.w3.org/2000/svg" width="32" height="32" viewBox="0 0 32 32">
  <g fill="none" fill-rule="evenodd">
    <path fill="#34555C" fill-rule="nonzero" d="M16.1,31.2387695 C7.99639544,31.2387695 1.46123047,24.7036046 1.46123047,16.6 C1.46123047,8.49639544 7.99639544,1.96123047 16.1,1.96123047 C24.2036046,1.96123047 30.7387695,8.49639544 30.7387695,16.6 C30.7387695,24.7036046 24.2036046,31.2387695 16.1,31.2387695 Z M16.1,4.44459316 C9.43413173,4.44459316 4.07529646,9.80342843 4.07529646,16.4692967 C4.07529646,23.135165 9.43413173,28.4940002 16.1,28.4940002 C22.7658683,28.4940002 28.1247035,23.135165 28.1247035,16.4692967 C28.2554068,9.93413173 22.7658683,4.44459316 16.1,4.44459316 Z"/>
    <path fill="#34555C" fill-rule="nonzero" d="M16.8842198,15.292967 L26.2948574,15.292967 C26.1641541,10.1955383 22.1123518,6.14373605 16.8842198,6.14373605 L16.8842198,15.292967 Z"/>
    <polygon fill="#34555C" fill-rule="nonzero" points="9.837 8.043 11.988 6.801 13.818 9.97 11.667 11.212"/>
    <polygon fill="#34555C" fill-rule="nonzero" points="6.42 12.304 7.662 10.153 10.831 11.983 9.589 14.134"/>
    <polygon fill="#34555C" fill-rule="nonzero" points="5.704 17.728 5.704 15.245 9.364 15.245 9.364 17.728"/>
    <polygon fill="#34555C" fill-rule="nonzero" points="7.693 22.912 6.451 20.762 9.62 18.932 10.862 21.083"/>
    <polygon fill="#34555C" fill-rule="nonzero" points="11.896 26.286 9.746 25.044 11.576 21.875 13.726 23.116"/>
    <polygon fill="#34555C" fill-rule="nonzero" points="17.328 27.11 14.845 27.11 14.845 23.45 17.328 23.45"/>
    <polygon fill="#34555C" fill-rule="nonzero" points="22.488 25.137 20.337 26.378 18.507 23.209 20.658 21.967"/>
    <polygon fill="#34555C" fill-rule="nonzero" points="25.918 20.75 24.677 22.901 21.507 21.071 22.749 18.921"/>
  </g>
</svg>
