<svg xmlns="http://www.w3.org/2000/svg" width="32" height="32" viewBox="0 0 32 32">
  <path fill="#416673" d="M23.9,7.8 L22.1,7.8 L22.1,6.4 C22.1,4.9 20.9,3.6 19.3,3.6 L13,3.6 C11.5,3.6 10.2,4.8 10.2,6.4 L10.2,7.8 L8.5,7.8 C6.7,7.8 5.2,9.3 5.2,11.1 L5.2,16.6 C5.2,18.4 6.7,19.9 8.5,19.9 L10.5,19.9 C11.9,23.5 12.9,24.6 15,25.4 L15,26.8 L12.2,26.8 L12.2,28.4 L20,28.4 L20,26.8 L17.2,26.8 L17.2,25.4 C19.3,24.6 20.2,23.6 21.7,19.9 L23.7,19.9 C25.5,19.9 27,18.4 27,16.6 L27,11 C27.2,9.2 25.7,7.8 23.9,7.8 Z M8.7,17.8 C8,17.8 7.4,17.2 7.4,16.5 L7.4,11 C7.4,10.3 8,9.7 8.7,9.7 L10.4,9.7 L10.4,15.7 C10.4,15.8 10.4,15.8 10.4,15.9 C10.4,16.1 10.4,16.3 10.4,16.5 C10.4,17 10.4,17.4 10.4,17.9 L8.7,17.9 L8.7,17.8 Z M18.3,14.8 L18.8,17.7 L16.2,16.3 L13.6,17.7 L14.1,14.8 L12,12.8 L14.9,12.4 L16.2,9.8 L17.5,12.4 L20.4,12.8 L18.3,14.8 Z M25.2,16.5 C25.2,17.2 24.6,17.8 23.9,17.8 L22.1,17.8 C22.1,17.4 22.1,16.9 22.1,16.4 C22.1,15.9 22.1,15.4 22,14.9 L22,9.7 L23.8,9.7 C24.5,9.7 25.1,10.3 25.1,11 L25.1,16.5 L25.2,16.5 Z"/>
</svg>
