<svg xmlns="http://www.w3.org/2000/svg" width="32" height="32" viewBox="0 0 32 32">
  <g fill="none" fill-rule="evenodd">
    <path fill="#416673" fill-rule="nonzero" d="M27.7,27 L0.4,27 L0.4,10.7 L27.7,10.7 L27.7,27 Z M2,25.5 L26.3,25.5 L26.3,12.2 L2,12.2 L2,25.5 Z"/>
    <path fill="#416673" fill-rule="nonzero" d="M23.3,12.7 L4.9,12.7 C4.9,13.9 3.8,14.9 2.5,14.9 L2.5,22.8 C3.8,22.8 4.9,23.8 4.9,25 L23.3,25 C23.3,23.8 24.4,22.8 25.7,22.8 L25.7,15 C24.4,15 23.3,14 23.3,12.7 Z M13.8,24.2 C10.9,24.2 8.5,21.8 8.5,18.9 C8.5,16 10.9,13.6 13.8,13.6 C16.7,13.6 19.1,16 19.1,18.9 C19.1,21.8 16.7,24.2 13.8,24.2 Z"/>
    <path fill="#416673" fill-rule="nonzero" d="M12.8 17.5C12.8 17.8 13 18.1 13.4 18.2L13.4 16.9C13 16.9 12.8 17.1 12.8 17.5zM13.9 19.1L13.9 20.7C14.1 20.7 14.3 20.6 14.4 20.5 14.5 20.4 14.6 20.2 14.6 20 14.6 19.6 14.4 19.3 13.9 19.1z"/>
    <path fill="#416673" fill-rule="nonzero" d="M13.8,15.1 C11.7,15.1 10,16.8 10,18.9 C10,21 11.7,22.7 13.8,22.7 C15.9,22.7 17.6,21 17.6,18.9 C17.6,16.8 15.9,15.1 13.8,15.1 Z M14.9,20.9 C14.6,21.2 14.2,21.3 13.8,21.3 L13.8,21.9 L13.4,21.9 L13.4,21.3 C12.5,21.2 12.1,20.7 12,20 L12.3,19.8 C12.3,19.9 12.4,19.9 12.6,20 C12.8,20.1 12.9,20.1 12.9,20.2 C13,20.3 13,20.4 13.1,20.5 C13.2,20.6 13.3,20.7 13.5,20.7 L13.5,19 C12.6,18.7 12.2,18.2 12.2,17.6 C12.2,17.2 12.3,16.9 12.6,16.7 C12.8,16.5 13.2,16.3 13.5,16.3 L13.5,16 L13.9,16 L13.9,16.2 C14.3,16.2 14.6,16.4 14.8,16.6 C15.1,16.8 15.2,17.1 15.2,17.5 L14.4,17.5 C14.3,17.1 14.1,16.8 13.8,16.8 L13.8,18.3 C14.3,18.5 14.6,18.7 14.8,18.8 C15.1,19.1 15.3,19.4 15.3,19.8 C15.3,20.2 15.2,20.7 14.9,20.9 Z"/>
    <polygon fill="#416673" fill-rule="nonzero" points="29 8.7 28.4 8.7 2.1 8.7 2.1 9.9 28.4 9.9 28.4 25.3 29.6 25.3 29.6 8.7"/>
    <polygon fill="#416673" fill-rule="nonzero" points="31.1 6.8 30.5 6.8 4.2 6.8 4.2 8 30.5 8 30.5 23.4 31.7 23.4 31.7 6.8"/>
  </g>
</svg>
