<svg xmlns="http://www.w3.org/2000/svg" width="32" height="32" viewBox="0 0 32 32">
  <g fill="none" fill-rule="evenodd">
    <polyline stroke="#416673" stroke-width="2" points="2 14.5 9.6 14.5 9.6 26.9 21.6 26.9 21.6 14 28.3 14"/>
    <polygon fill="#416673" fill-rule="nonzero" points="19 20.5 17.6 19.1 15.8 20.9 14.1 19.1 12.7 20.5 14.4 22.3 12.7 24.1 14.1 25.5 15.8 23.7 17.6 25.5 19 24.1 17.2 22.3"/>
    <polygon fill="#416673" fill-rule="nonzero" points="29.9 7.7 28.5 6.3 25.6 9.2 24.3 7.9 22.9 9.3 25.6 12 25.6 12 25.7 12"/>
    <circle cx="4.6" cy="10.2" r="2.1" stroke="#416673"/>
    <path fill="#416673" fill-rule="nonzero" d="M20.8 11.5C20.9 11.6 21.1 11.7 21.2 11.7 21.2 11.7 21.2 11.7 21.2 11.7 21.2 11.7 21.2 11.7 21.2 11.7 21.2 11.7 21.2 11.7 21.2 11.7 21.2 11.7 21.2 11.7 21.2 11.7 21.2 11.7 21.2 11.7 21.2 11.7 21.7 11.8 22.3 11.5 22.4 10.9 22.5 10.5 22.3 10.1 22 9.9 21.9 9.8 21.7 9.7 21.6 9.7L21.5 9.7C21 9.6 20.4 9.9 20.3 10.5 20.3 10.9 20.5 11.3 20.8 11.5zM17.6 10.1C17.7 10.2 17.9 10.3 18.1 10.3 18.1 10.3 18.1 10.3 18.2 10.3 18.2 10.3 18.2 10.3 18.2 10.3 18.8 10.3 19.2 9.9 19.3 9.4 19.3 9.1 19.2 8.7 18.9 8.5 18.8 8.4 18.6 8.3 18.4 8.3L18.3 8.3C17.7 8.3 17.3 8.7 17.2 9.2 17.2 9.6 17.4 9.9 17.6 10.1zM14.4 9.3C14.6 9.4 14.8 9.5 15.1 9.5 15.1 9.5 15.1 9.5 15.1 9.5 15.1 9.5 15.1 9.5 15.1 9.5 15.1 9.5 15.1 9.5 15.1 9.5 15.1 9.5 15.1 9.5 15.1 9.5 15.7 9.5 16.1 9 16 8.4 16 8.1 15.8 7.8 15.6 7.7 15.4 7.6 15.2 7.5 14.9 7.5L14.8 7.5C14.2 7.5 13.8 8 13.9 8.6 14.1 8.9 14.2 9.1 14.4 9.3zM11.3 10.5C11.5 10.7 11.8 10.7 12.1 10.7 12.1 10.7 12.1 10.7 12.1 10.7 12.1 10.7 12.1 10.7 12.1 10.7 12.6 10.6 13 10.1 12.9 9.5 12.9 9.2 12.7 9 12.5 8.9 12.3 8.7 12 8.7 11.7 8.7L11.6 8.7C11.1 8.8 10.7 9.3 10.8 9.9 11 10.1 11.1 10.3 11.3 10.5zM8.2 12.2C8.5 12.4 8.8 12.5 9.1 12.4 9.1 12.4 9.1 12.4 9.1 12.4 9.1 12.4 9.1 12.4 9.1 12.4 9.1 12.4 9.1 12.4 9.1 12.4 9.1 12.4 9.1 12.4 9.1 12.4 9.1 12.4 9.1 12.4 9.1 12.4 9.6 12.2 9.9 11.7 9.8 11.1 9.7 10.9 9.6 10.7 9.5 10.6 9.2 10.4 8.9 10.3 8.6 10.4L8.5 10.4C8 10.6 7.7 11.1 7.9 11.7 7.9 11.9 8 12.1 8.2 12.2z"/>
  </g>
</svg>
