<svg xmlns="http://www.w3.org/2000/svg" width="32" height="32" viewBox="0 0 32 32">
  <g fill="none" fill-rule="evenodd">
    <path fill="#416673" fill-rule="nonzero" d="M16,13.25 C19.125,13.25 21.75,15.875 21.75,19 C21.75,22.125 19.125,24.75 16,24.75 C12.875,24.75 10.25,22.125 10.25,19 C10.25,15.75 12.875,13.25 16,13.25 Z M16,12 C12.125,12 9,15.125 9,19 C9,22.875 12.125,26 16,26 C19.875,26 23,22.875 23,19 C23,15.125 19.875,12 16,12 Z"/>
    <path fill="#416673" fill-rule="nonzero" d="M15.125,19.9574468 L19,16 L20,17.0212766 L16.125,20.9787234 L15.125,22 L12,18.9361702 L13,17.787234 L15.125,19.9574468 Z"/>
    <path fill="#34555C" fill-rule="nonzero" d="M21.9006211,6.7079646 L21.5279503,6.7079646 L21.5279503,6.46017699 C21.5279503,5.71681416 20.9068323,5.22123894 20.2857143,5.22123894 L19.1677019,5.22123894 L19.1677019,4.2300885 C19.1677019,2.99115044 18.173913,2 16.931677,2 L14.8198758,2 C13.5776398,2 12.5838509,2.99115044 12.5838509,4.2300885 L12.5838509,5.22123894 L11.7142857,5.22123894 C10.9689441,5.22123894 10.4720497,5.84070796 10.4720497,6.46017699 L10.4720497,6.7079646 L10.0993789,6.7079646 C7.86335404,6.7079646 6,8.56637168 6,10.7964602 L6,25.9115044 C6,28.1415929 7.86335404,30 10.0993789,30 L21.9006211,30 C24.136646,30 26,28.1415929 26,25.9115044 L26,10.7964602 C25.8757764,8.44247788 24.136646,6.7079646 21.9006211,6.7079646 Z M13.9503106,4.10619469 C13.9503106,3.61061947 14.3229814,3.11504425 14.9440994,3.11504425 L17.0559006,3.11504425 C17.552795,3.11504425 18.0496894,3.48672566 18.0496894,4.10619469 L18.0496894,5.09734513 L14.0745342,5.09734513 L14.0745342,4.10619469 L13.9503106,4.10619469 Z M24.0124224,25.2516161 C24.0124224,26.6329003 22.8582882,27.8990774 21.3579137,27.8990774 L10.393639,27.8990774 C9.00867803,27.8990774 7.73913043,26.7480073 7.73913043,25.2516161 L7.73913043,11.2085608 C7.73913043,9.82727672 8.89326461,8.5610996 10.393639,8.5610996 L10.7398793,8.5610996 L10.7398793,9.02152765 C10.7398793,9.71216971 11.3169464,10.1725978 11.8940135,10.1725978 L19.8575393,10.1725978 C20.5500198,10.1725978 21.0116735,9.5970627 21.0116735,9.02152765 L21.0116735,8.5610996 L21.3579137,8.5610996 C22.7428748,8.5610996 24.0124224,9.71216971 24.0124224,11.2085608 L24.0124224,25.2516161 Z"/>
  </g>
</svg>
