<svg xmlns="http://www.w3.org/2000/svg" width="32" height="32" viewBox="0 0 32 32">
  <g fill="none" transform="translate(7 4)">
    <path fill="#FFF" d="M18.9801047,11.6129032 C18.9801047,5.22177419 13.8371728,0 7.52041885,0 L7.52041885,1.54233871 C12.9816754,1.54233871 17.4581152,6.03830645 17.4581152,11.6129032 C17.4581152,16.8346774 13.4691099,21.1895161 8.41570681,21.6431452 L8.32617801,19.5564516 L6.0382199,21.0080645 L3.75026178,22.4596774 L6.12774869,23.7298387 L8.5052356,25 L8.41570681,23.2258065 C14.3743455,22.6814516 18.9801047,17.6915323 18.9801047,11.6129032 Z"/>
    <rect width="1.791" height="3.175" x="6.715" y="2.722" fill="#FFF"/>
    <rect width="3.134" height="1.815" x="12.982" y="10.433" fill="#FFF"/>
    <rect width="1.791" height="1.996" x="11.598" y="15.314" fill="#FFF" transform="rotate(-45 12.493 16.312)"/>
    <rect width="1.97" height="1.814" x="1.752" y="15.411" fill="#FFF" transform="rotate(-45 2.737 16.318)"/>
    <rect width="1.791" height="3.175" x="1.782" y="4.789" fill="#FFF" transform="rotate(-45 2.677 6.376)"/>
    <polygon fill="#AFC461" points="15.538 8.821 12.763 6.048 6.585 12.308 2.736 8.407 0 11.179 6.585 17.843 6.585 17.843 6.625 17.843"/>
  </g>
</svg>
