<svg xmlns="http://www.w3.org/2000/svg" width="32" height="32" viewBox="0 0 32 32">
  <g fill="none" transform="translate(5 3)">
    <rect width="1.729" height="3.13" x="9.861" y="19.197" fill="#FFF"/>
    <rect width="1.807" height="1.789" x="5.174" y="17.757" fill="#FFF" transform="rotate(-45 6.078 18.651)"/>
    <rect width="3.025" height="1.789" x="2.534" y="12.937" fill="#FFF"/>
    <rect width="3.025" height="1.789" x="16.52" y="12.947" fill="#FFF"/>
    <rect width="3.015" height="1.789" x="13.95" y="8.031" fill="#7E7F86" transform="rotate(-45 15.458 8.925)"/>
    <rect width="1.729" height="1.87" x="14.707" y="17.905" fill="#FFF" transform="rotate(-45 15.572 18.84)"/>
    <polygon fill="#AFC461" points="20.281 7.632 17.6 4.909 10.784 11.961 7.071 8.13 4.439 10.843 10.784 17.409 10.784 17.409 10.833 17.409"/>
    <path fill="#FFF" d="M20.9294643,8.84146341 L19.9375,9.86788618 C20.3696429,11.0264228 20.625,12.2764228 20.625,13.6178862 C20.625,19.1565041 16.2642857,23.6585366 10.9214286,23.6585366 C5.57857143,23.6585366 1.20803571,19.1565041 1.20803571,13.6178862 C1.20803571,8.52642276 4.87142857,4.32926829 9.625,3.65853659 L9.58571429,6.15853659 L12.2178571,4.68495935 L14.85,3.21138211 L12.30625,1.60569106 L9.75267857,0 L9.71339286,2.31707317 C4.22321429,2.98780488 0,7.81504065 0,13.6178862 C0,19.9085366 4.92053571,25 11,25 C17.0794643,25 22,19.9085366 22,13.6178862 C21.9214286,11.9207317 21.5678571,10.3150407 20.9294643,8.84146341 Z"/>
  </g>
</svg>
