<svg xmlns="http://www.w3.org/2000/svg" width="32" height="32" viewBox="0 0 32 32">
  <g fill="none" transform="translate(5 3)">
    <path fill="#FFF" d="M19.4937778,5.48780488 L17.8786667,6.42276423 C19.9026667,8.16056911 21.16,10.7520325 21.16,13.6077236 C21.16,18.9227642 16.8462222,23.2012195 11.5102222,23.2012195 C6.17422222,23.2012195 1.85022222,18.9329268 1.85022222,13.6178862 C1.85022222,9.02439024 5.13155556,5.18292683 9.48622222,4.24796748 L9.48622222,6.2601626 L14.8733333,3.1402439 L9.476,0 L9.476,2.40853659 C4.14,3.34349593 0.0511111111,8.03861789 0.0511111111,13.6178862 C0.0511111111,19.9085366 5.17244444,25 11.5,25 C17.8275556,25 22.9488889,19.9085366 22.9488889,13.6178862 C22.9488889,10.4471545 21.6506667,7.54065041 19.4937778,5.48780488 Z"/>
    <rect width="6.287" height="1.789" x="13.974" y="12.561" fill="#C1272D"/>
    <polygon fill="#C1272D" points="9.026 12.561 6.788 12.561 6.788 10.325 4.988 10.325 4.988 12.561 2.74 12.561 2.74 14.35 4.988 14.35 4.988 16.575 6.788 16.575 6.788 14.35 9.026 14.35"/>
    <rect width="10.774" height="1.789" x="5.897" y="13.025" fill="#C1272D" transform="rotate(-69.715 11.284 13.92)"/>
  </g>
</svg>
