<svg xmlns="http://www.w3.org/2000/svg" width="32" height="32" viewBox="0 0 32 32">
  <g fill="#FFF" transform="translate(5 3)">
    <path d="M19.4937778,5.48780488 L17.8786667,6.42276423 C19.9026667,8.16056911 21.16,10.7520325 21.16,13.6077236 C21.16,18.9227642 16.8462222,23.2012195 11.5102222,23.2012195 C6.17422222,23.2012195 1.85022222,18.9329268 1.85022222,13.6178862 C1.85022222,9.02439024 5.13155556,5.18292683 9.48622222,4.24796748 L9.48622222,6.2601626 L14.8733333,3.1402439 L9.476,0 L9.476,2.40853659 C4.14,3.34349593 0.0511111111,8.03861789 0.0511111111,13.6178862 C0.0511111111,19.9085366 5.17244444,25 11.5,25 C17.8275556,25 22.9488889,19.9085366 22.9488889,13.6178862 C22.9488889,10.4471545 21.6506667,7.54065041 19.4937778,5.48780488 Z"/>
    <polygon points="19.76 12.998 15.63 8.039 11.5 12.998 13.831 12.998 13.831 18.709 17.429 18.709 17.429 12.998"/>
    <polygon points="3.414 14.197 7.544 19.157 11.684 14.197 9.343 14.197 9.343 8.486 5.755 8.486 5.755 14.197"/>
  </g>
</svg>
