<svg xmlns="http://www.w3.org/2000/svg" width="24" height="24" viewBox="0 0 24 24">
  <path fill="#FFF" d="M20.46805,9.21544455 C20.4365942,9.31421981 20.3818529,9.43854696 20.3387544,9.48965076 C20.2956558,9.54456828 19.5162053,10.2173079 18.6074592,10.9851997 C17.5304041,11.8921014 16.8996538,12.4002791 16.797933,12.4368908 C16.335696,12.6086987 15.8109559,12.418585 15.603225,12.0017458 C15.513147,11.8263148 15.5092661,11.7822664 15.5092661,10.9851997 L15.5092661,10.1551443 L11.4553473,10.1551443 L11.2202457,10.049123 C10.4017819,9.6908243 10.2489965,8.6998301 10.9267263,8.13311184 C11.2870383,7.82954001 11.2243309,7.83697676 13.5040602,7.82229395 L15.5094703,7.81123417 L15.5094703,7.02141351 C15.5094703,6.12919455 15.5290791,6.01955021 15.7523337,5.78920174 C16.0344147,5.48944363 16.5121754,5.41259724 16.8763683,5.60633403 C16.9821742,5.66487458 17.7889953,6.31930832 18.6701666,7.06164821 C20.3309926,8.46204488 20.4523221,8.582749 20.4954207,8.89356689 C20.5072677,8.97403631 20.4954207,9.12029233 20.46805,9.21544455 Z M3.53194997,5.21544455 C3.50457933,5.12029233 3.49273234,4.97403631 3.50457933,4.89356689 C3.54767788,4.582749 3.66900744,4.46204488 5.32983342,3.06164821 C6.21100466,2.31930832 7.0178258,1.66487458 7.12363171,1.60633403 C7.48782464,1.41259724 7.96558531,1.48944363 8.24766632,1.78920174 C8.47092087,2.01955021 8.49052969,2.12919455 8.49052969,3.02141351 L8.49052969,3.81123417 L10.4959398,3.82229395 C12.7756691,3.83697676 12.7129617,3.82954001 13.0732737,4.13311184 C13.7510035,4.6998301 13.5982181,5.6908243 12.7797543,6.04912296 L12.5446527,6.15514428 L8.49073395,6.15514428 L8.49073395,6.98519965 C8.49073395,7.78226638 8.48685304,7.82631481 8.39677503,8.00174576 C8.18904412,8.41858496 7.664304,8.60869873 7.20206698,8.4368908 C7.10034624,8.40027912 6.46959594,7.89210141 5.39254079,6.98519965 C4.48379465,6.21730785 3.70434416,5.54456828 3.66124561,5.48965076 C3.61814706,5.43854696 3.56340578,5.31421981 3.53194997,5.21544455 Z M3.28619145,10.6054582 C2.02093686,10.7787373 0.989816701,11.2240326 0.413523422,11.8426069 C-0.378574338,12.7004481 -0.0129531568,13.6985743 1.34150713,14.3547862 C2.278778,14.8140122 3.1786558,14.9968228 4.45808554,15.0014664 C5.13775967,15.0014664 5.87804481,14.940611 6.07967413,14.8609369 C6.11706721,14.8467617 6.22020367,14.696945 6.30940937,14.5234216 C6.52496945,14.1111202 6.88594705,13.6939308 7.29360489,13.3705906 C7.62158859,13.1127495 8.35283096,12.7050916 8.68545825,12.6019552 C8.78395112,12.5692057 8.87291242,12.5222811 8.88708758,12.4988187 C8.94794297,12.4052138 8.70892057,12.0114868 8.42786151,11.7348269 C7.83690428,11.1536456 6.79185336,10.7459878 5.4889613,10.5866395 C4.96399185,10.5211405 3.8392668,10.5304277 3.28619145,10.6054582 Z M10.8549898,13.5861507 C8.91934827,13.8344603 7.50403259,14.7531568 7.50403259,15.7559267 C7.50867617,17.354053 10.7142159,18.4413849 13.6528717,17.8462729 C15.3822403,17.4948269 16.4507536,16.6980855 16.4553971,15.7559267 C16.4553971,15.3763747 16.3006925,15.071609 15.9164969,14.7155193 C15.3118534,14.1485132 14.4026884,13.7828921 13.1608961,13.6047251 C12.6359267,13.5296945 11.3846029,13.5204073 10.8549898,13.5861507 Z M18.306721,13.6000815 C17.8567821,13.6704684 17.2054582,13.8156415 17.2054582,13.8437475 C17.2054582,13.8530346 17.2804888,13.9608147 17.3740937,14.0827699 C18.0303055,14.9403666 18.1427291,16.023055 17.6693279,16.9884318 L17.5287984,17.2790224 L17.6693279,17.5603259 C17.749002,17.7150305 17.8521385,17.8509165 17.8941752,17.8602037 C18.1097352,17.9210591 18.2551527,17.9398778 18.831446,17.9868024 C20.9638289,18.1554379 23.1336049,17.4664766 23.7663544,16.4121385 C23.9164155,16.1638289 23.9303462,16.1076171 23.9303462,15.7840326 C23.9303462,15.5076171 23.9068839,15.3856619 23.8225662,15.2216701 C23.4149084,14.4391039 22.2153971,13.8251731 20.6593075,13.6047251 C20.0830143,13.5204073 18.8268024,13.5204073 18.306721,13.6000815 Z M0.174501018,15.1373523 C0.0620773931,15.3059878 0.00586558045,15.535723 0.00586558045,15.8074949 C0.010509165,16.7682281 1.27600815,17.6023625 3.21604888,17.9210591 C3.82069246,18.0195519 5.1609776,18.0195519 5.74215886,17.9210591 C5.96700611,17.883666 6.15934827,17.8460285 6.16399185,17.8367413 C6.16863544,17.8274542 6.22949084,17.7008554 6.2998778,17.5507943 L6.42647658,17.2790224 L6.28594705,16.9791446 C6.20627291,16.8151527 6.13124236,16.6135234 6.11242363,16.5338493 L6.08431772,16.3837882 L5.84529532,16.4118941 C5.09547862,16.510387 4.47201629,16.5338493 3.9003666,16.4869246 C2.31617108,16.3698574 1.00887984,15.8822811 0.399592668,15.1886762 L0.249531568,15.0200407 L0.174501018,15.1373523 Z M0.19796334,18.0945825 C0.24,18.0476578 0.300855397,18.0850509 0.502973523,18.2820367 C1.15894094,18.9333605 2.41979633,19.3786558 3.89596741,19.4817923 C4.46786151,19.5238289 5.30199593,19.4910794 5.80814664,19.4114053 L6.00488798,19.3786558 L6.01417515,20.0206925 C6.01881874,20.3721385 6.02346232,20.7050102 6.02346232,20.761222 C6.02810591,20.8594705 5.99535642,20.8736456 5.67665988,20.9252138 C4.84252546,21.0610998 3.30525458,20.9860692 2.47576375,20.7705092 C1.18215886,20.4378819 0.249531568,19.7958452 0.052790224,19.1115275 C-0.0457026477,18.7742566 0.0244399185,18.3101426 0.19796334,18.0945825 Z M7.60252546,18.2632179 C7.65873727,18.1366191 7.71983707,18.0334827 7.74329939,18.0337271 C7.76676171,18.0337271 7.81808554,18.0850509 7.8603666,18.1507943 C7.96814664,18.3147862 8.45083503,18.6708758 8.81645621,18.8536864 C10.5270061,19.7112831 13.4187373,19.7208147 15.1104684,18.8725051 C15.4900204,18.6801629 15.9494908,18.3521792 16.094664,18.1693686 L16.2117312,18.0195519 L16.2867617,18.1366191 C16.3991853,18.3052546 16.4553971,18.5349898 16.4553971,18.8067617 C16.44611,20.3486762 13.189002,21.4313646 10.311446,20.8455397 C8.25873727,20.4283503 7.13376782,19.3551935 7.60252546,18.2632179 Z M23.5884318,18.1693686 L23.6913238,18.0288391 L23.770998,18.1366191 C23.9396334,18.3570672 24.0004888,18.7881874 23.9068839,19.1115275 C23.8320978,19.3786558 23.5415071,19.7538086 23.2320978,19.9832994 C22.1166599,20.8223218 20.1578004,21.183055 18.165947,20.9159267 L17.9315682,20.8831772 L17.950387,20.1521792 C17.9550305,19.7445214 17.9692057,19.4116497 17.9784929,19.4023625 C17.98778,19.392831 18.1705906,19.4116497 18.3815071,19.4443992 C18.9438697,19.5240733 20.1766191,19.5098982 20.7436253,19.4209369 C21.779389,19.252057 22.5761303,18.9614664 23.1854175,18.5257026 C23.3494094,18.4037475 23.53222,18.2443992 23.5884318,18.1693686 Z M7.60252546,21.2627291 C7.65873727,21.1361303 7.71519348,21.0329939 7.72472505,21.0329939 C7.7386558,21.0329939 7.83714868,21.1268432 7.9495723,21.2439104 C8.71331976,22.026721 10.2271283,22.4952342 12.0034216,22.4905906 C13.2735642,22.485947 14.2858656,22.2796741 15.1434623,21.8531976 C15.5137271,21.6657434 16.0010591,21.3142974 16.1088391,21.1503055 C16.1511202,21.0894501 16.207332,21.047169 16.2307943,21.0613442 C16.3385743,21.1268432 16.4556415,21.4878208 16.4556415,21.7642363 C16.4602851,22.7626069 15.1432179,23.6341344 13.2124644,23.9200815 C12.4765784,24.0278615 10.9581263,23.990224 10.311446,23.8496945 C8.23038697,23.3997556 7.13376782,22.3547047 7.60252546,21.2627291 Z"/>
</svg>
