<svg xmlns="http://www.w3.org/2000/svg" width="24" height="24" viewBox="0 0 24 24">
  <path fill="#FFF" d="M22.516,11.0370339 C22.909,11.0370339 23.302,11.1680339 23.564,11.4740339 C23.825,11.7800339 24,12.1290339 24,12.5220339 C24,12.9150339 23.87,13.3080339 23.564,13.5700339 C23.258,13.8320339 22.909,14.0060339 22.516,14.0060339 L22.342,14.0060339 L20.989,21.7780339 C20.945,22.1270339 20.771,22.4320339 20.465,22.6510339 C20.16,22.8690339 19.855,23.0000339 19.505,23.0000339 L4.495,23.0000339 C4.145,23.0000339 3.796,22.8690339 3.535,22.6500339 C3.27188521,22.4226227 3.08829554,22.1171071 3.011,21.7780339 L1.658,14.0060339 L1.484,14.0060339 C1.091,14.0060339 0.698,13.8760339 0.436,13.5700339 C0.175,13.2640339 0,12.9150339 0,12.5220339 C0,12.1290339 0.13,11.7360339 0.436,11.4740339 C0.742,11.2120339 1.091,11.0370339 1.484,11.0370339 L22.516,11.0370339 Z M5.673,20.3800339 C5.87989951,20.3854666 6.07594838,20.2876296 6.196,20.1190339 C6.327,19.9440339 6.415,19.7690339 6.371,19.5950339 L6.021,14.7050339 C6.02676922,14.4977842 5.92889458,14.3012849 5.76,14.1810339 C5.585,14.0500339 5.41,13.9630339 5.236,14.0060339 C5.02891516,14.0008288 4.83282863,14.0990595 4.713,14.2680339 C4.582,14.4430339 4.495,14.6180339 4.538,14.7920339 L4.931,19.6820339 C4.931,19.8570339 5.018,20.0320339 5.193,20.1620339 C5.323,20.2930339 5.498,20.3800339 5.716,20.3800339 L5.673,20.3800339 Z M10.516,19.6380339 L10.516,14.7920339 C10.5177909,14.594955 10.4390495,14.4056867 10.298,14.2680339 C10.1606548,14.127138 9.9717554,14.0483998 9.775,14.0500339 C9.57789844,14.0481263 9.38858611,14.126886 9.251,14.2680339 C9.10995053,14.4056867 9.03120913,14.594955 9.033,14.7920339 L9.033,19.6820339 C9.033,19.9000339 9.12,20.0750339 9.251,20.2060339 C9.381,20.3360339 9.556,20.4240339 9.775,20.4240339 C9.9717554,20.4256679 10.1606548,20.3469298 10.298,20.2060339 C10.4399402,20.0511179 10.5178455,19.8481352 10.516,19.6380339 Z M15.011,19.6380339 L15.011,14.7920339 C15.0127909,14.594955 14.9340495,14.4056867 14.793,14.2680339 C14.6554139,14.126886 14.4661016,14.0481263 14.269,14.0500339 C14.0718984,14.0481263 13.8825861,14.126886 13.745,14.2680339 C13.6039505,14.4056867 13.5252091,14.594955 13.527,14.7920339 L13.527,19.6820339 C13.527,19.9000339 13.615,20.0750339 13.745,20.2060339 C13.876,20.3360339 14.051,20.4240339 14.269,20.4240339 C14.4661016,20.4259415 14.6554139,20.3471817 14.793,20.2060339 C14.9349402,20.0511179 15.0128455,19.8481352 15.011,19.6380339 Z M19.113,19.7260339 L19.505,14.8360339 C19.505,14.6170339 19.462,14.4430339 19.331,14.3120339 C19.2,14.1810339 19.025,14.0500339 18.807,14.0500339 C18.589,14.0500339 18.415,14.0940339 18.284,14.2250339 C18.153,14.3550339 18.022,14.5300339 18.022,14.7480339 L17.629,19.6380339 C17.629,19.8570339 17.673,20.0310339 17.804,20.1620339 C17.934,20.2930339 18.109,20.3800339 18.327,20.3800339 L18.371,20.3800339 C18.545,20.3800339 18.72,20.2930339 18.895,20.1620339 C19.0332438,20.0599541 19.1142825,19.8978768 19.113,19.7260339 Z M5.585,5.44903386 L4.495,10.2950339 L2.967,10.2950339 L4.145,5.10003386 C4.276,4.40103386 4.625,3.83403386 5.193,3.39703386 C5.76,2.96003386 6.37,2.74203386 7.069,2.74203386 L9.033,2.74203386 C9.033,2.52403386 9.12,2.34903386 9.251,2.21803386 C9.38858611,2.07688598 9.57789844,1.99812627 9.775,2.00003386 L14.269,2.00003386 C14.487,2.00003386 14.662,2.08703386 14.793,2.21803386 C14.923,2.34903386 15.011,2.52403386 15.011,2.74203386 L16.975,2.74203386 C17.673,2.74203386 18.284,2.96003386 18.851,3.39703386 C19.418,3.83403386 19.724,4.40103386 19.898,5.10003386 L21.076,10.2520339 L19.55,10.2520339 L18.46,5.40503386 C18.382283,5.07788247 18.1979363,4.78588292 17.936,4.57503386 C17.6819212,4.35287842 17.356496,4.22938011 17.019,4.22703386 L15.056,4.22703386 C15.0575286,4.42426022 14.978417,4.61355007 14.837,4.75103386 C14.6996548,4.89192975 14.5107554,4.97066793 14.314,4.96903386 L9.73,4.96903386 C9.53289844,4.97094146 9.34358611,4.89218175 9.206,4.75103386 C9.06495053,4.61338099 8.98620913,4.42411268 8.988,4.22703386 L7.025,4.22703386 C6.676,4.22703386 6.371,4.35703386 6.109,4.57603386 C5.84570408,4.80370714 5.66209858,5.10959952 5.585,5.44903386 Z"/>
</svg>
