<svg xmlns="http://www.w3.org/2000/svg" width="40" height="40" viewBox="0 0 40 40">
  <path fill="#CCCCCC" d="M20,17.8786797 L23.1062191,14.7724606 C23.7338474,14.1448323 24.7175144,14.1109127 25.3033009,14.6966991 C25.8890873,15.2824856 25.8551677,16.2661526 25.2275394,16.8937809 L22.1213203,20 L25.2275394,23.1062191 C25.8551677,23.7338474 25.8890873,24.7175144 25.3033009,25.3033009 C24.7175144,25.8890873 23.7338474,25.8551677 23.1062191,25.2275394 L20,22.1213203 L16.8937809,25.2275394 C16.2661526,25.8551677 15.2824856,25.8890873 14.6966991,25.3033009 C14.1109127,24.7175144 14.1448323,23.7338474 14.7724606,23.1062191 L17.8786797,20 L14.7724606,16.8937809 C14.1448323,16.2661526 14.1109127,15.2824856 14.6966991,14.6966991 C15.2824856,14.1109127 16.2661526,14.1448323 16.8937809,14.7724606 L20,17.8786797 Z M20,39.5 C9.23044738,39.5 0.5,30.7695526 0.5,20 C0.5,9.23044738 9.23044738,0.5 20,0.5 C30.7695526,0.5 39.5,9.23044738 39.5,20 C39.5,30.7695526 30.7695526,39.5 20,39.5 Z M20,36.5 C29.1126984,36.5 36.5,29.1126984 36.5,20 C36.5,10.8873016 29.1126984,3.5 20,3.5 C10.8873016,3.5 3.5,10.8873016 3.5,20 C3.5,29.1126984 10.8873016,36.5 20,36.5 Z"/>
</svg>
