<?xml version="1.0" encoding="UTF-8"?>
<svg width="40px" height="40px" viewBox="0 0 40 40" version="1.1" xmlns="http://www.w3.org/2000/svg" xmlns:xlink="http://www.w3.org/1999/xlink">
    <!-- Generator: Sketch 49 (51002) - http://www.bohemiancoding.com/sketch -->
    <title>Combined Shape</title>
    <desc>Created with Sketch.</desc>
    <defs></defs>
    <g id="Page-1" stroke="none" stroke-width="1" fill="none" fill-rule="evenodd">
        <g id="Artboard" fill="#CBDC3D" fill-rule="nonzero">
            <path d="M20,39.5 C9.23044738,39.5 0.5,30.7695526 0.5,20 C0.5,9.23044738 9.23044738,0.5 20,0.5 C30.7695526,0.5 39.5,9.23044738 39.5,20 C39.5,30.7695526 30.7695526,39.5 20,39.5 Z M20,36.5 C29.1126984,36.5 36.5,29.1126984 36.5,20 C36.5,10.8873016 29.1126984,3.5 20,3.5 C10.8873016,3.5 3.5,10.8873016 3.5,20 C3.5,29.1126984 10.8873016,36.5 20,36.5 Z M14.5,16 C13.6715729,16 13,15.3284271 13,14.5 C13,13.6715729 13.6715729,13 14.5,13 L25.5,13 C26.3284271,13 27,13.6715729 27,14.5 C27,15.3284271 26.3284271,16 25.5,16 L14.5,16 Z M14.5,22 C13.6715729,22 13,21.3284271 13,20.5 C13,19.6715729 13.6715729,19 14.5,19 L25.5,19 C26.3284271,19 27,19.6715729 27,20.5 C27,21.3284271 26.3284271,22 25.5,22 L14.5,22 Z M14.5,28 C13.6715729,28 13,27.3284271 13,26.5 C13,25.6715729 13.6715729,25 14.5,25 L25.5,25 C26.3284271,25 27,25.6715729 27,26.5 C27,27.3284271 26.3284271,28 25.5,28 L14.5,28 Z" id="Combined-Shape"></path>
        </g>
    </g>
</svg>