<?xml version="1.0" encoding="UTF-8"?><svg width="32" height="32" version="1.1" viewBox="0 0 32 32" xmlns="http://www.w3.org/2000/svg" xmlns:xlink="http://www.w3.org/1999/xlink"><!--Generated by IJSVG (https://github.com/curthard89/IJSVG)--><g transform="scale(1.33333)"><path fill="#FFF" d="M10.213,1.74c0.711,0.69 1.112,1.631 1.233,2.776c0.034,-0.001 0.068,-0.005 0.102,-0.006c0.647,-0.024 1.282,-0.012 1.905,0.03c0.028,-1.223 0.041,-2.539 0.044,-3.931c-0.491,-0.064 -0.989,-0.109 -1.497,-0.109c-1.054,0 -2.071,0.154 -3.041,0.421c0.424,0.183 0.861,0.437 1.254,0.819Z"></path><path fill="#FFF" d="M10.453,4.582c-0.101,-0.891 -0.407,-1.61 -0.937,-2.125c-0.745,-0.723 -1.726,-0.904 -2.208,-0.946c-2.836,1.274 -5.058,3.662 -6.119,6.606c1.813,-1.638 5.288,-3.171 9.264,-3.535Z"></path><path fill="#FFF" d="M17.582,5.368c2.048,0.695 3.881,1.798 5.419,3.289c-0.669,-2.196 -1.975,-4.115 -3.706,-5.539c-0.509,0.241 -1.439,0.866 -1.713,2.25Z"></path><path fill="#FFF" d="M14.496,0.781c-0.004,1.369 -0.017,2.671 -0.046,3.879c0.747,0.094 1.474,0.232 2.178,0.421c0.29,-1.301 1.058,-2.143 1.792,-2.617c-1.172,-0.792 -2.5,-1.367 -3.924,-1.683Z"></path><path fill="#FFF" d="M5.521,13.192c2.102,-2.406 4.688,-5.368 4.953,-7.606c-4.396,0.423 -8.193,2.357 -9.343,4.078c-0.098,0.147 -0.262,0.216 -0.426,0.213c-0.13,0.689 -0.205,1.397 -0.205,2.123c0,2.141 0.599,4.141 1.622,5.859c0.387,-1.21 1.74,-2.768 3.399,-4.667Z"></path><path fill="#FFF" d="M17.51,6.361c0.051,1.942 0.918,3.968 1.763,5.931c0.968,2.246 1.957,4.55 1.759,6.804c1.54,-1.957 2.468,-4.418 2.468,-7.096c0,-0.488 -0.041,-0.966 -0.1,-1.439c-1.761,-2.17 -3.829,-3.467 -5.89,-4.2Z"></path><path fill="#FFF" d="M13.423,5.538c-0.643,-0.043 -1.262,-0.051 -1.84,-0.029c-0.034,0.001 -0.068,0.005 -0.102,0.006c-0.192,2.588 -2.848,5.634 -5.207,8.335c-1.609,1.842 -3.273,3.746 -3.273,4.65c0,0.158 -0.077,0.292 -0.191,0.384c1.604,2.136 3.928,3.697 6.614,4.315c2.652,-4.106 3.728,-8.609 3.999,-17.661Z"></path><path fill="#FFF" d="M18.354,12.688c-0.911,-2.116 -1.854,-4.304 -1.854,-6.506c0,-0.047 0.01,-0.085 0.011,-0.13c-0.709,-0.194 -1.41,-0.333 -2.091,-0.42c-0.274,8.973 -1.334,13.591 -3.928,17.758c0.495,0.065 0.995,0.11 1.507,0.11c2.925,0 5.59,-1.107 7.621,-2.911c1.068,-2.448 -0.057,-5.098 -1.266,-7.901Z"></path></g></svg>