<?xml version="1.0" encoding="UTF-8"?><svg width="32" height="32" version="1.1" viewBox="0 0 32 32" xmlns="http://www.w3.org/2000/svg" xmlns:xlink="http://www.w3.org/1999/xlink"><!--Generated by IJSVG (https://github.com/curthard89/IJSVG)--><g transform="scale(1.33333)"><path fill="#FFF" d="M1,22.5c0.396,-3.34 2.116,-6.935 4.577,-10.216l-0.431,-0.431c-0.195,-0.195 -0.195,-0.512 0,-0.707c0.195,-0.195 0.512,-0.195 0.707,0l0.341,0.341c0.38,-0.476 0.774,-0.944 1.183,-1.403l-0.731,-0.73c-0.195,-0.195 -0.195,-0.512 0,-0.707c0.195,-0.195 0.512,-0.195 0.707,0l0.701,0.701c0.419,-0.443 0.85,-0.875 1.291,-1.295l-0.699,-0.699c-0.195,-0.195 -0.195,-0.512 0,-0.707c0.195,-0.195 0.512,-0.195 0.707,0l0.727,0.727c0.457,-0.411 0.924,-0.806 1.398,-1.188l-0.332,-0.332c-0.195,-0.195 -0.195,-0.512 0,-0.707c0.195,-0.195 0.512,-0.195 0.707,0l0.42,0.42c3.278,-2.473 6.861,-4.19 10.17,-4.563l0.402,-0.001c-0.569,-0.535 -1.309,-0.89 -2.13,-0.95c-1.315,-0.097 -2.653,-0.059 -3.979,0.115c-8.63,1.125 -15.444,7.939 -16.569,16.57c-0.173,1.326 -0.211,2.665 -0.115,3.979c0.06,0.82 0.414,1.56 0.948,2.128v-0.345Z"></path><path fill="#FFF" d="M23.58,1.984c-0.027,0.005 -0.052,0.016 -0.08,0.016h-1c-3.044,0.344 -6.395,1.966 -9.496,4.297l0.349,0.349c0.195,0.195 0.195,0.512 0,0.707c-0.097,0.098 -0.225,0.147 -0.353,0.147c-0.128,0 -0.256,-0.049 -0.354,-0.146l-0.438,-0.438c-0.474,0.381 -0.942,0.776 -1.399,1.187l0.544,0.544c0.195,0.195 0.195,0.512 0,0.707c-0.097,0.097 -0.225,0.146 -0.353,0.146c-0.128,0 -0.256,-0.049 -0.354,-0.146l-0.572,-0.572c-0.441,0.42 -0.873,0.852 -1.291,1.295l0.571,0.571c0.195,0.195 0.195,0.512 0,0.707c-0.098,0.096 -0.226,0.145 -0.354,0.145c-0.128,0 -0.256,-0.049 -0.354,-0.146l-0.54,-0.54c-0.409,0.459 -0.803,0.928 -1.182,1.404l0.429,0.429c0.195,0.195 0.195,0.512 0,0.707c-0.097,0.097 -0.225,0.146 -0.353,0.146c-0.128,0 -0.256,-0.049 -0.354,-0.146l-0.339,-0.339c-2.321,3.105 -3.946,6.47 -4.311,9.544l0.004,0.941c0,0.028 -0.012,0.053 -0.016,0.08c0.398,0.201 0.835,0.334 1.3,0.368c0.47,0.035 0.944,0.052 1.418,0.052c0.852,0 1.709,-0.055 2.561,-0.167c8.631,-1.125 15.445,-7.939 16.57,-16.57c0.173,-1.326 0.211,-2.665 0.115,-3.979c-0.034,-0.464 -0.167,-0.902 -0.368,-1.3Z"></path></g></svg>