<?xml version="1.0" encoding="UTF-8"?><svg width="32" height="32" version="1.1" viewBox="0 0 32 32" xmlns="http://www.w3.org/2000/svg" xmlns:xlink="http://www.w3.org/1999/xlink"><!--Generated by IJSVG (https://github.com/curthard89/IJSVG)--><g transform="scale(1.33333)"><path fill="#FFF" d="M12,0c-4.054,0 -7.638,2.026 -9.811,5.113c-0.059,0.048 -0.102,0.109 -0.135,0.18c-1.296,1.916 -2.054,4.225 -2.054,6.707c0,6.617 5.383,12 12,12c6.617,0 12,-5.383 12,-12c0,-6.617 -5.383,-12 -12,-12Zm6.5,3.146c1.767,1.3 3.128,3.111 3.87,5.218l-1.56,-0.312l-2.31,-3.696v-1.21Zm-13.42,10.369l2.218,-3.548l3.476,-0.435l2.669,3.558l-1.314,3.941l-4.851,0.441l-2.198,-3.957Zm4.92,-12.324c0.65,-0.12 1.316,-0.191 2,-0.191c2.005,0 3.881,0.548 5.502,1.49c0,0.004 -0.002,0.007 -0.002,0.01v1.547l-4.391,0.439l-3.109,-1.776v-1.519Zm2.341,4.008l-1.669,3.338l-3.361,0.42l-1.197,-2.793l3.423,-2.567l2.804,1.602Zm-11.341,6.801c0,-2.192 0.652,-4.232 1.762,-5.95l2.387,0.398l1.289,3.008l-2.238,3.581l-3.088,0.441c-0.066,-0.484 -0.112,-0.975 -0.112,-1.478Zm13.545,10.691c-0.819,0.195 -1.668,0.309 -2.545,0.309c-2.228,0 -4.3,-0.67 -6.034,-1.813l1.357,-2.714l5.016,-0.456l2.621,2.184l-0.415,2.49Zm-1.463,-5.357l1.29,-3.869l4.18,-0.418l0.419,4.193l-3.43,2.144l-2.459,-2.05Zm6.871,-0.334l-0.443,-4.433l1.31,-3.493l1.87,0.374c0.195,0.82 0.31,1.672 0.31,2.552c0,1.801 -0.444,3.498 -1.214,5h-1.833Z"></path></g></svg>