<?xml version="1.0" encoding="UTF-8"?><svg width="32" height="32" version="1.1" viewBox="0 0 32 32" xmlns="http://www.w3.org/2000/svg" xmlns:xlink="http://www.w3.org/1999/xlink"><!--Generated by IJSVG (https://github.com/curthard89/IJSVG)--><g transform="scale(1.33333)"><path fill="#FFF" d="M9.285,16.893c2.959,-0.623 10.791,-5.329 10.963,-7.127c0.005,-0.051 0.025,-0.096 0.043,-0.141c-1.15,-0.745 -2.213,-1.216 -2.705,-1.415c-0.984,0.954 -4.801,4.521 -7.628,5.362c-0.337,0.174 -0.623,1.546 -0.673,3.321Z"></path><path fill="#FFF" d="M23.02,12.349c0.029,-0.066 0.07,-0.122 0.12,-0.168c-0.585,-0.758 -1.278,-1.416 -1.998,-1.959c-0.911,2.695 -8.926,7.092 -11.862,7.677c0.017,0.754 0.078,1.548 0.193,2.336c2.031,-0.096 10.866,-1.657 13.547,-7.886Z"></path><path fill="#FFF" d="M1.021,15.33c0.555,1.83 1.551,3.469 2.869,4.79c0.15,-2.203 0.638,-8.051 1.64,-9.421c-0.711,-0.673 -1.383,-1.387 -1.963,-2.079c-1.466,2.211 -2.405,5.078 -2.544,6.702c-2.22045e-16,0.003 -0.001,0.005 -0.002,0.008Z"></path><path fill="#FFF" d="M17.486,5.465c0.238,0.637 0.403,1.254 0.456,1.809c0.905,0.36 3.597,1.559 5.533,3.721c-0.108,-1.24 -0.409,-2.425 -0.881,-3.523c-1.101,-0.543 -3.659,-1.712 -5.108,-2.007Z"></path><path fill="#FFF" d="M14.781,9.284c-0.038,-1.155 -4.235,-7.324 -5.318,-8.407c-0.02,-0.02 -0.029,-0.045 -0.045,-0.067c-1.441,0.335 -2.779,0.938 -3.957,1.761c1.503,1.55 7.201,7.721 7.455,7.997c0.053,0.057 0.086,0.125 0.107,0.195c0.628,-0.455 1.232,-0.935 1.778,-1.394c-0.006,-0.029 -0.019,-0.055 -0.02,-0.085Z"></path><path fill="#FFF" d="M8.265,17.665c-0.027,-0.061 -0.042,-0.128 -0.042,-0.2c0,-0.069 0.014,-0.134 0.039,-0.193c0.008,-1.603 0.215,-3.022 0.597,-3.833c0.031,-0.065 0.066,-0.119 0.099,-0.178c-0.853,-0.43 -1.784,-1.106 -2.691,-1.893c-0.589,0.907 -1.176,5.386 -1.417,9.406c-0.003,0.059 -0.02,0.114 -0.043,0.166c1.255,1.015 2.729,1.763 4.337,2.18c-0.572,-1.613 -0.852,-3.627 -0.879,-5.455Z"></path><path fill="#FFF" d="M9.651,21.226c0.154,0.723 0.356,1.422 0.625,2.055c0.01,0.024 0.009,0.049 0.015,0.074c0.567,0.086 1.143,0.145 1.734,0.145c5.704,0 10.439,-4.18 11.335,-9.635c-3.3,5.613 -11.394,7.19 -13.709,7.361Z"></path><path fill="#FFF" d="M2.846,7.892c0.021,-0.032 0.051,-0.051 0.078,-0.076c-0.395,-0.524 -0.709,-1.008 -0.928,-1.426c-0.933,1.661 -1.471,3.573 -1.471,5.61c1.11022e-16,0.242 0.022,0.48 0.036,0.718c0.483,-1.565 1.262,-3.334 2.285,-4.826Z"></path><path fill="#FFF" d="M15.636,8.648c0.619,-0.549 1.087,-0.994 1.315,-1.216c-0.16,-2.361 -3.139,-6.575 -3.17,-6.619c-0.039,-0.055 -0.065,-0.115 -0.079,-0.177c-0.549,-0.08 -1.106,-0.136 -1.677,-0.136c-0.501,0 -0.991,0.043 -1.476,0.106c1.284,1.562 4.4,6.056 5.087,8.042Z"></path><path fill="#FFF" d="M17.038,4.403c1.193,0.055 3.357,0.948 4.778,1.595c-1.511,-2.455 -3.911,-4.297 -6.754,-5.078c0.51,0.773 1.333,2.098 1.976,3.483Z"></path><path fill="#FFF" d="M2.664,5.404c0.073,0.975 4.196,5.989 7.167,7.153c0.753,-0.25 1.589,-0.709 2.422,-1.261c-0.024,-0.018 -0.051,-0.028 -0.072,-0.051c-0.064,-0.069 -6.199,-6.714 -7.523,-8.066c-0.76,0.636 -1.432,1.372 -2.007,2.181c0.003,0.016 0.012,0.029 0.013,0.044Z"></path></g></svg>