<?xml version="1.0" encoding="UTF-8"?><svg width="32" height="32" version="1.1" viewBox="0 0 32 32" xmlns="http://www.w3.org/2000/svg" xmlns:xlink="http://www.w3.org/1999/xlink"><!--Generated by IJSVG (https://github.com/curthard89/IJSVG)--><g transform="scale(1.33333)"><path fill="#FFF" d="M12.5,1c0,0.511 0.049,1.009 0.12,1.5h0.88c0.276,0 0.5,0.224 0.5,0.5c0,0.276 -0.224,0.5 -0.5,0.5h-0.687c0.171,0.697 0.411,1.365 0.714,2l0.715,-0.429c0.237,-0.143 0.544,-0.065 0.686,0.171c0.142,0.237 0.065,0.544 -0.171,0.686l-0.756,0.454c0.359,0.598 0.774,1.155 1.241,1.668l0.404,-0.404c0.195,-0.195 0.512,-0.195 0.707,0c0.195,0.195 0.195,0.512 0,0.707l-0.404,0.404c0.513,0.467 1.071,0.882 1.668,1.241l0.454,-0.756c0.142,-0.237 0.448,-0.313 0.686,-0.171c0.237,0.142 0.313,0.449 0.171,0.686l-0.428,0.715c0.635,0.303 1.303,0.543 2,0.714v-0.686c0,-0.276 0.224,-0.5 0.5,-0.5c0.276,0 0.5,0.224 0.5,0.5v0.88c0.491,0.071 0.989,0.12 1.5,0.12h0.475c-0.258,-5.942 -5.033,-10.717 -10.975,-10.975v0.475Z"></path><path fill="#FFF" d="M11.5,23c0,-0.511 -0.049,-1.009 -0.12,-1.5h-0.88c-0.276,0 -0.5,-0.224 -0.5,-0.5c0,-0.276 0.224,-0.5 0.5,-0.5h0.687c-0.171,-0.697 -0.411,-1.365 -0.714,-2l-0.715,0.429c-0.081,0.048 -0.17,0.071 -0.258,0.071c-0.17,0 -0.335,-0.086 -0.429,-0.243c-0.142,-0.237 -0.065,-0.544 0.171,-0.686l0.756,-0.454c-0.359,-0.598 -0.774,-1.155 -1.241,-1.668l-0.404,0.404c-0.097,0.098 -0.225,0.147 -0.353,0.147c-0.128,0 -0.256,-0.049 -0.354,-0.146c-0.195,-0.195 -0.195,-0.512 0,-0.707l0.404,-0.404c-0.513,-0.467 -1.071,-0.882 -1.668,-1.241l-0.454,0.756c-0.093,0.156 -0.259,0.242 -0.428,0.242c-0.087,0 -0.176,-0.023 -0.257,-0.071c-0.237,-0.142 -0.313,-0.449 -0.171,-0.686l0.428,-0.715c-0.635,-0.303 -1.303,-0.543 -2,-0.714v0.686c0,0.276 -0.224,0.5 -0.5,0.5c-0.276,0 -0.5,-0.224 -0.5,-0.5v-0.88c-0.491,-0.071 -0.989,-0.12 -1.5,-0.12h-0.475c0.258,5.942 5.033,10.717 10.975,10.975v-0.475Z"></path><path fill="#FFF" d="M23,12.5c-0.51,0 -1.008,-0.045 -1.5,-0.109v0.609c0,0.276 -0.224,0.5 -0.5,0.5c-0.276,0 -0.5,-0.224 -0.5,-0.5v-0.782c-0.882,-0.197 -1.723,-0.499 -2.516,-0.886l-0.555,0.925c-0.094,0.157 -0.26,0.243 -0.429,0.243c-0.087,0 -0.176,-0.023 -0.257,-0.071c-0.237,-0.142 -0.313,-0.449 -0.171,-0.686l0.533,-0.888c-0.668,-0.401 -1.29,-0.867 -1.861,-1.391l-0.889,0.889c-0.099,0.098 -0.227,0.147 -0.355,0.147c-0.128,0 -0.256,-0.049 -0.354,-0.146c-0.195,-0.195 -0.195,-0.512 0,-0.707l0.889,-0.889c-0.524,-0.571 -0.989,-1.194 -1.391,-1.861l-0.888,0.533c-0.079,0.047 -0.168,0.07 -0.256,0.07c-0.17,0 -0.335,-0.086 -0.429,-0.243c-0.142,-0.237 -0.065,-0.544 0.171,-0.686l0.925,-0.555c-0.387,-0.794 -0.689,-1.634 -0.886,-2.516h-0.781c-0.276,0 -0.5,-0.224 -0.5,-0.5c0,-0.276 0.224,-0.5 0.5,-0.5h0.609c-0.064,-0.492 -0.109,-0.99 -0.109,-1.5v-0.475c-5.942,0.258 -10.717,5.033 -10.975,10.975h0.475c0.51,0 1.008,0.045 1.5,0.109v-0.609c0,-0.276 0.224,-0.5 0.5,-0.5c0.276,0 0.5,0.224 0.5,0.5v0.782c0.882,0.197 1.723,0.499 2.516,0.886l0.555,-0.925c0.143,-0.237 0.449,-0.313 0.686,-0.171c0.237,0.142 0.313,0.449 0.171,0.686l-0.533,0.888c0.668,0.401 1.29,0.867 1.861,1.391l0.889,-0.889c0.195,-0.195 0.512,-0.195 0.707,0c0.195,0.195 0.195,0.512 0,0.707l-0.889,0.889c0.524,0.571 0.989,1.194 1.391,1.861l0.888,-0.533c0.237,-0.142 0.544,-0.065 0.686,0.171c0.142,0.237 0.065,0.544 -0.171,0.686l-0.925,0.555c0.387,0.794 0.689,1.634 0.886,2.516h0.782c0.276,0 0.5,0.224 0.5,0.5c0,0.276 -0.224,0.5 -0.5,0.5h-0.609c0.065,0.492 0.109,0.99 0.109,1.5v0.475c5.942,-0.257 10.717,-5.033 10.975,-10.975h-0.475Z"></path></g></svg>