<?xml version="1.0" encoding="UTF-8"?><svg width="32" height="32" version="1.1" viewBox="0 0 32 32" xmlns="http://www.w3.org/2000/svg" xmlns:xlink="http://www.w3.org/1999/xlink"><!--Generated by IJSVG (https://github.com/curthard89/IJSVG)--><g transform="scale(1.33333)"><path fill="#FFF" d="M14.5,16.919v-4c-0.331,0.021 -0.664,0.037 -1,0.049v4c0.341,-0.012 0.675,-0.028 1,-0.049Z"></path><path fill="#FFF" d="M16.5,16.732v-3.992c-0.328,0.039 -0.662,0.074 -1,0.104v3.997c0.344,-0.032 0.678,-0.069 1,-0.109Z"></path><path fill="#FFF" d="M18.5,16.403v-3.974c-0.324,0.063 -0.657,0.122 -1,0.174v3.984c0.351,-0.057 0.683,-0.119 1,-0.184Z"></path><path fill="#FFF" d="M20.5,15.869v-3.941c-0.315,0.101 -0.65,0.193 -1,0.28v3.962c0.365,-0.095 0.697,-0.196 1,-0.301Z"></path><path fill="#FFF" d="M12,7c-6.41,0 -10.5,1.48 -10.5,2.5c0,1.02 4.09,2.5 10.5,2.5c6.41,0 10.5,-1.48 10.5,-2.5c0,-1.02 -4.09,-2.5 -10.5,-2.5Z"></path><path fill="#FFF" d="M21.5,15.456c0.646,-0.326 1,-0.661 1,-0.956v-3.48c-0.281,0.193 -0.621,0.37 -1,0.535v3.901Z"></path><path fill="#FFF" d="M11.5,12.993v3.999c0.167,0.003 0.329,0.008 0.5,0.008c0.171,0 0.333,-0.005 0.5,-0.007v-3.999c-0.167,0.001 -0.333,0.006 -0.5,0.006c-0.167,0 -0.333,-0.005 -0.5,-0.007Z"></path><path fill="#FFF" d="M4.5,16.171v-3.962c-0.35,-0.087 -0.685,-0.179 -1,-0.28v3.941c0.303,0.104 0.635,0.205 1,0.301Z"></path><path fill="#FFF" d="M2.5,15.456v-3.901c-0.379,-0.165 -0.719,-0.342 -1,-0.535v3.48c0,0.296 0.354,0.63 1,0.956Z"></path><path fill="#FFF" d="M8.5,16.841v-3.997c-0.338,-0.03 -0.672,-0.065 -1,-0.104v3.992c0.322,0.04 0.656,0.077 1,0.109Z"></path><path fill="#FFF" d="M6.5,16.587v-3.984c-0.343,-0.053 -0.676,-0.111 -1,-0.174v3.974c0.317,0.065 0.649,0.127 1,0.184Z"></path><path fill="#FFF" d="M10.5,16.969v-4c-0.336,-0.012 -0.669,-0.029 -1,-0.049v4c0.325,0.02 0.659,0.036 1,0.049Z"></path></g></svg>